<svg xmlns="http://www.w3.org/2000/svg" xmlns:xlink="http://www.w3.org/1999/xlink" width="564" height="485" viewBox="0 0 564 485">
  <defs>
    <filter id="Rectangle_3" x="0" y="366" width="552" height="119" filterUnits="userSpaceOnUse">
      <feOffset dy="3" input="SourceAlpha"/>
      <feGaussianBlur stdDeviation="3" result="blur"/>
      <feFlood flood-opacity="0.702"/>
      <feComposite operator="in" in2="blur"/>
      <feComposite in="SourceGraphic"/>
    </filter>
  </defs>
  <g id="playlist" transform="translate(-673 -356)">
    <g id="Group_1" data-name="Group 1" transform="translate(413.838 338.444)">
      <g transform="matrix(1, 0, 0, 1, 259.16, 17.56)" filter="url(#Rectangle_3)">
        <rect id="Rectangle_3-2" data-name="Rectangle 3" width="534" height="101" rx="50.5" transform="translate(9 372)" fill="#10cc30"/>
      </g>
      <path id="Polygon_1" data-name="Polygon 1" d="M20.5,0,41,37H0Z" transform="translate(567.162 420.556) rotate(90)" fill="#fff"/>
      <path id="Polygon_4" data-name="Polygon 4" d="M5,0l5,7H0Z" transform="translate(757.116 456.367) rotate(131)" fill="#fff"/>
      <path id="Polygon_5" data-name="Polygon 5" d="M5,0l5,7H0Z" transform="matrix(0.788, 0.616, -0.616, 0.788, 748.409, 422.371)" fill="#fff"/>
      <path id="Polygon_6" data-name="Polygon 6" d="M5,0l5,7H0Z" transform="translate(367.912 425.503) rotate(89)" fill="#fff"/>
      <path id="Polygon_7" data-name="Polygon 7" d="M4.5,0,9,7H0Z" transform="translate(320.087 460.396) rotate(-91)" fill="#fff"/>
      <g id="Polygon_3" data-name="Polygon 3" transform="matrix(-0.017, -1, 1, -0.017, 398.674, 462.647)" fill="none">
        <path d="M20.5,0,41,37H0Z" stroke="none"/>
        <path d="M 20.5 6.19017219543457 L 5.091854095458984 34 L 35.90814590454102 34 L 20.5 6.19017219543457 M 20.5 0 L 41 37 L 0 37 L 20.5 0 Z" stroke="none" fill="#f1eaea"/>
      </g>
      <g id="Polygon_2" data-name="Polygon 2" transform="matrix(-0.017, 1, -1, -0.017, 679.14, 421.654)" fill="none">
        <path d="M20.5,0,41,37H0Z" stroke="none"/>
        <path d="M 20.5 6.19017219543457 L 5.091854095458984 34 L 35.90814590454102 34 L 20.5 6.19017219543457 M 20.5 0 L 41 37 L 0 37 L 20.5 0 Z" stroke="none" fill="#f2e8e8"/>
      </g>
      <line id="Line_1" data-name="Line 1" y2="44" transform="translate(398.074 419.804)" fill="none" stroke="#f8f5f5" stroke-width="3"/>
      <line id="Line_3" data-name="Line 3" x2="35.491" transform="translate(326.009 430.451)" fill="none" stroke="#f8f5f5" stroke-width="3"/>
      <line id="Line_5" data-name="Line 5" y1="30.51" x2="26.533" transform="translate(722.662 429.33)" fill="none" stroke="#f8f5f5" stroke-width="3"/>
      <line id="Line_6" data-name="Line 6" x2="14" y2="12" transform="translate(719.662 430.782)" fill="none" stroke="#f8f5f5" stroke-width="3"/>
      <line id="Line_7" data-name="Line 7" x2="12.533" y2="10.937" transform="translate(737.662 446.87)" fill="none" stroke="#f8f5f5" stroke-width="3"/>
      <line id="Line_4" data-name="Line 4" x2="35.491" transform="translate(326.009 456.418)" fill="none" stroke="#f8f5f5" stroke-width="3"/>
      <line id="Line_8" data-name="Line 8" x2="0.162" y2="14.277" transform="translate(360.5 443.642)" fill="none" stroke="#f8f5f5" stroke-width="3"/>
      <path id="Path_5" data-name="Path 5" d="M.021,1.166h0L0,14.5" transform="translate(327.5 427.844)" fill="none" stroke="#f8f5f5" stroke-width="3"/>
      <line id="Line_2" data-name="Line 2" y2="44" transform="translate(679.162 419.259)" fill="none" stroke="#f8f5f5" stroke-width="3"/>
    </g>
    <g id="playlist-2" data-name="playlist" transform="translate(651 13)">
      <g id="PlayList-3" data-name="PlayList" transform="translate(33 343)">
        <rect id="Rectangle_5" data-name="Rectangle 5" width="525" height="368" rx="20" fill="#fff"/>
        <rect id="Rectangle_6" data-name="Rectangle 6" width="269" height="16" rx="8" transform="translate(88 97)" fill="#ec9e9e"/>
        <rect id="Rectangle_10" data-name="Rectangle 10" width="105" height="16" rx="8" transform="translate(88 123)" fill="#e99898"/>
        <rect id="Rectangle_11" data-name="Rectangle 11" width="105" height="16" rx="8" transform="translate(88 255)" fill="#84ee8f"/>
        <rect id="Rectangle_13" data-name="Rectangle 13" width="105" height="16" rx="8" transform="translate(88 189)" fill="#eeb2f5"/>
        <rect id="Rectangle_12" data-name="Rectangle 12" width="105" height="16" rx="8" transform="translate(88 320)" fill="#f5e09c"/>
        <rect id="Rectangle_7" data-name="Rectangle 7" width="269" height="16" rx="8" transform="translate(88 162)" fill="#eeb2f5"/>
        <rect id="Rectangle_8" data-name="Rectangle 8" width="269" height="16" rx="8" transform="translate(88 228)" fill="#84ee8f"/>
        <rect id="Rectangle_9" data-name="Rectangle 9" width="269" height="16" rx="8" transform="translate(88 294)" fill="#f5e09c"/>
        <rect id="Rectangle_14" data-name="Rectangle 14" width="23" height="5" rx="2.5" transform="translate(17 24)" fill="#707070"/>
      </g>
      <g id="Group_2" data-name="Group 2" transform="translate(33.5 373)">
        <rect id="Rectangle_15" data-name="Rectangle 15" width="23" height="5" rx="2.5" transform="translate(16.5 1)" fill="#707070"/>
        <rect id="Rectangle_16" data-name="Rectangle 16" width="23" height="5" rx="2.5" transform="translate(16.5 8)" fill="#707070"/>
        <line id="Line_10" data-name="Line 10" y1="1" x2="525.478" transform="translate(0 51.5)" fill="none" stroke="#707070" stroke-width="1"/>
        <circle id="Ellipse_1" data-name="Ellipse 1" cx="3" cy="3" r="3" transform="translate(505.5)" fill="#707070"/>
        <circle id="Ellipse_6" data-name="Ellipse 6" cx="3" cy="3" r="3" transform="translate(505.5 85)" fill="#707070"/>
        <circle id="Ellipse_9" data-name="Ellipse 9" cx="3" cy="3" r="3" transform="translate(505.5 144)" fill="#707070"/>
        <circle id="Ellipse_12" data-name="Ellipse 12" cx="3" cy="3" r="3" transform="translate(502.5 209)" fill="#707070"/>
        <circle id="Ellipse_15" data-name="Ellipse 15" cx="3" cy="3" r="3" transform="translate(502.5 274)" fill="#707070"/>
        <circle id="Ellipse_2" data-name="Ellipse 2" cx="3" cy="3" r="3" transform="translate(505.5 9)" fill="#707070"/>
        <circle id="Ellipse_4" data-name="Ellipse 4" cx="3" cy="3" r="3" transform="translate(505.5 94)" fill="#707070"/>
        <circle id="Ellipse_8" data-name="Ellipse 8" cx="3" cy="3" r="3" transform="translate(505.5 153)" fill="#707070"/>
        <circle id="Ellipse_11" data-name="Ellipse 11" cx="3" cy="3" r="3" transform="translate(502.5 218)" fill="#707070"/>
        <circle id="Ellipse_14" data-name="Ellipse 14" cx="3" cy="3" r="3" transform="translate(502.5 283)" fill="#707070"/>
        <circle id="Ellipse_3" data-name="Ellipse 3" cx="3" cy="3" r="3" transform="translate(505.5 18)" fill="#707070"/>
        <circle id="Ellipse_5" data-name="Ellipse 5" cx="3" cy="3" r="3" transform="translate(505.5 103)" fill="#707070"/>
        <circle id="Ellipse_7" data-name="Ellipse 7" cx="3" cy="3" r="3" transform="translate(505.5 162)" fill="#707070"/>
        <circle id="Ellipse_10" data-name="Ellipse 10" cx="3" cy="3" r="3" transform="translate(502.5 227)" fill="#707070"/>
        <circle id="Ellipse_13" data-name="Ellipse 13" cx="3" cy="3" r="3" transform="translate(502.5 292)" fill="#707070"/>
        <rect id="Rectangle_17" data-name="Rectangle 17" width="40" height="42" rx="10" transform="translate(18.5 67)" fill="#aea7ef"/>
        <rect id="Rectangle_18" data-name="Rectangle 18" width="40" height="42" rx="10" transform="translate(18.5 132)" fill="#efa7b1"/>
        <rect id="Rectangle_19" data-name="Rectangle 19" width="40" height="42" rx="10" transform="translate(18.5 197)" fill="#f170e8"/>
        <rect id="Rectangle_20" data-name="Rectangle 20" width="40" height="42" rx="10" transform="translate(18.5 262)" fill="#86f6ef"/>
        <text id="Playlist_Songs_Artist_Album_Favorite_Ge_" data-name="Playlist          Songs        Artist         Album         Favorite         Ge      " transform="translate(6.5 42)" fill="#e26972" font-size="20" font-family="Calibri-Bold, Calibri" font-weight="700"><tspan x="0" y="0" xml:space="preserve">Playlist          </tspan><tspan y="0" xml:space="preserve" fill="#fc0" font-size="24">Songs        </tspan><tspan y="0" xml:space="preserve">Artist         Album         Favorite         Ge      </tspan></text>
        <line id="Line_11" data-name="Line 11" x2="58" transform="translate(111.108 52.5)" fill="none" stroke="#fc0" stroke-width="2"/>
      </g>
    </g>
  </g>
</svg>
